<?xml version="1.0" encoding="utf-8"?>
<!-- Generator: Adobe Illustrator 26.0.0, SVG Export Plug-In . SVG Version: 6.00 Build 0)  -->
<svg version="1.1" xmlns="http://www.w3.org/2000/svg" xmlns:xlink="http://www.w3.org/1999/xlink" x="0px" y="0px"
	 viewBox="0 0 32 32" style="enable-background:new 0 0 32 32;" xml:space="preserve">
<style type="text/css">
	
		.st0{clip-path:url(#SVGID_00000065035510612479774160000006497435840430848946_);fill:#FFFFFF;stroke:#FFFFFF;stroke-width:0.25;stroke-miterlimit:10;}
	
		.st1{clip-path:url(#SVGID_00000136389753491257436540000016264226417138891929_);fill:url(#SVGID_1_);stroke:#FFFFFF;stroke-width:0.25;stroke-miterlimit:10;}
</style>
<g id="Capa_3">
	<g>
		<defs>
			<path id="SVGID_00000065778818581167012470000007627776094058819764_" d="M8.45,0.12c-0.83,0.1-1.78,0.16-2.53,0.52
				c0,0,0.02,0,0.04,0c0.03,0,0.05,0.01,0,0c2.97,0.5,5.69,2.24,7.36,4.57c0.55,0.77,0.95,1.53,1.28,2.39
				c0.24,0.65,0.39,1.27,0.5,1.96c0.04,0.38,0,0.71-0.05,1.08c-0.21,1.17-0.75,2.31-0.43,3.48c0.51,1.36,1.76,2.29,2.98,3.07
				c0.14,0.09,0.25,0.2,0.33,0.34c0.08,0.14,0.12,0.29,0.09,0.45l0,0c-0.04,0.22-0.23,0.41-0.43,0.52c-0.4,0.22-0.94,0.3-1.32,0.98
				c-0.35,0.63-0.24,1.12-0.08,1.64c0.45,1.55,0.98,4.04-0.45,5.3c-0.71,0.62-1.59,0.62-2.5,0.6c-1.52-0.03-3.05-0.26-4.5-0.68
				c-0.22-0.06-0.43-0.13-0.64-0.2c-1.38-0.47-1.63-0.69-1.2,0.92c0.95,3.54,4.69,5.17,8.38,4.91c1.53-0.11,3.07-0.51,4.31-1.37
				c0.68-0.47,1.19-1.1,1.65-1.75c0.29-0.4,0.54-0.89,0.85-1.3c0.43-0.56,1.08-0.92,1.63-1.36c0.58-0.47,1.09-1.05,1.59-1.6
				c0.39-0.44,0.75-0.96,0.92-1.51c0.14-0.44,0.21-1.24-0.35-0.58c-0.56,0.65-0.99,1.32-1.79,1.78c-0.33,0.19-0.7,0.33-1.08,0.43
				c0.31-0.11,0.57-0.33,0.78-0.57c0.24-0.27,0.41-0.59,0.52-0.92c0.21-0.66,0.2-1.42-0.06-2.07c-0.51-1.28-1.87-2.29-3.38-2.01
				c-0.43,0.08-0.82,0.24-1.16,0.5c-0.67,0.5-1.16,1.33-1.19,2.14c-0.03,0.79,0.48,1.59,0.91,2.24c-0.98-0.13-2.65-3.79-1.69-5.39
				c0.04-0.06,0.08-0.12,0.14-0.18c0.06-0.06,0.14-0.15,0.14-0.15c0.85-0.89,2.1-1.42,2.49-1.45c0.2-0.04,0.4-0.1,0.6-0.14
				c0.85-0.25,1.59-0.66,2.18-1.3c0.59-0.66,0.86-1.41,1.02-2.25c0.28-1.66-0.08-3.35-0.76-4.88c-0.57-1.27-1.34-2.47-2.28-3.54
				C18.53,1.64,14.6,0,10.44,0C9.78,0,9.12,0.04,8.45,0.12"/>
		</defs>
		<use xlink:href="#SVGID_00000065778818581167012470000007627776094058819764_"  style="overflow:visible;fill:#FFFFFF;"/>
		<clipPath id="SVGID_00000114062189823571648150000017410393835602608801_">
			<use xlink:href="#SVGID_00000065778818581167012470000007627776094058819764_"  style="overflow:visible;"/>
		</clipPath>
		
			<polygon style="clip-path:url(#SVGID_00000114062189823571648150000017410393835602608801_);fill:#FFFFFF;stroke:#FFFFFF;stroke-width:0.25;stroke-miterlimit:10;" points="
			0.99,0.67 26.01,-2.74 31.37,31.56 6.35,34.97 		"/>
		
			<use xlink:href="#SVGID_00000065778818581167012470000007627776094058819764_"  style="overflow:visible;fill:none;stroke:#FFFFFF;stroke-width:0.25;stroke-miterlimit:10;"/>
	</g>
</g>
<g id="Capa_1">
	<g>
		<defs>
			<path id="SVGID_00000126300119392840988020000002760942776141409923_" d="M8.61,0.12C7.8,0.23,6.87,0.28,6.14,0.64
				c0,0,0.02,0,0.04,0c0.03,0,0.05,0.01,0,0c2.91,0.5,5.57,2.24,7.2,4.57c0.54,0.77,0.93,1.53,1.25,2.39
				c0.24,0.65,0.38,1.27,0.49,1.96c0.04,0.38,0,0.71-0.05,1.08c-0.2,1.17-0.74,2.31-0.42,3.48c0.5,1.36,1.72,2.29,2.92,3.07
				c0.14,0.09,0.25,0.2,0.33,0.34c0.08,0.14,0.12,0.29,0.09,0.45l0,0c-0.04,0.22-0.22,0.41-0.43,0.52c-0.4,0.22-0.92,0.3-1.29,0.98
				c-0.34,0.63-0.23,1.12-0.08,1.64c0.44,1.55,0.96,4.04-0.44,5.3c-0.7,0.62-1.56,0.62-2.45,0.6c-1.49-0.03-2.98-0.26-4.4-0.68
				c-0.21-0.06-0.42-0.13-0.63-0.2c-1.35-0.47-1.59-0.69-1.17,0.92c0.93,3.54,4.59,5.17,8.21,4.91c1.49-0.11,3-0.51,4.22-1.37
				c0.66-0.47,1.16-1.1,1.62-1.75c0.28-0.4,0.52-0.89,0.83-1.3c0.42-0.56,1.06-0.92,1.6-1.36c0.57-0.47,1.07-1.05,1.55-1.6
				c0.38-0.44,0.73-0.96,0.9-1.51c0.13-0.44,0.2-1.24-0.34-0.58c-0.54,0.65-0.97,1.32-1.75,1.78c-0.33,0.19-0.69,0.33-1.06,0.43
				c0.3-0.11,0.56-0.33,0.76-0.57c0.24-0.27,0.4-0.59,0.51-0.92c0.21-0.66,0.2-1.42-0.06-2.07c-0.5-1.28-1.83-2.29-3.31-2.01
				c-0.42,0.08-0.8,0.24-1.14,0.5c-0.66,0.5-1.14,1.33-1.16,2.14c-0.03,0.79,0.47,1.59,0.89,2.24c-0.96-0.13-2.59-3.79-1.65-5.39
				c0.04-0.06,0.08-0.12,0.13-0.18c0.06-0.06,0.13-0.15,0.13-0.15c0.84-0.89,2.06-1.42,2.43-1.45c0.2-0.04,0.39-0.1,0.59-0.14
				c0.83-0.25,1.56-0.66,2.13-1.3c0.57-0.66,0.84-1.41,1-2.25c0.28-1.66-0.07-3.35-0.75-4.88c-0.56-1.27-1.32-2.47-2.23-3.54
				C18.48,1.64,14.63,0,10.56,0C9.92,0,9.26,0.04,8.61,0.12"/>
		</defs>
		<clipPath id="SVGID_00000122701861984562825340000009945598803541704625_">
			<use xlink:href="#SVGID_00000126300119392840988020000002760942776141409923_"  style="overflow:visible;"/>
		</clipPath>
		
			<linearGradient id="SVGID_1_" gradientUnits="userSpaceOnUse" x1="-1729.4783" y1="1368.6904" x2="-1729.4562" y2="1368.6904" gradientTransform="matrix(851.11 -124.2046 -124.2046 -851.11 1641979 950114.75)">
			<stop  offset="0" style="stop-color:#D2933E"/>
			<stop  offset="0.3047" style="stop-color:#D49640"/>
			<stop  offset="0.5255" style="stop-color:#D99E45"/>
			<stop  offset="0.7198" style="stop-color:#E3AD4F"/>
			<stop  offset="0.8978" style="stop-color:#F1C35E"/>
			<stop  offset="1" style="stop-color:#FCD36A"/>
		</linearGradient>
		
			<polygon style="clip-path:url(#SVGID_00000122701861984562825340000009945598803541704625_);fill:url(#SVGID_1_);stroke:#FFFFFF;stroke-width:0.25;stroke-miterlimit:10;" points="
			1.31,0.67 25.8,-2.74 31.05,31.56 6.56,34.97 		"/>
		
			<use xlink:href="#SVGID_00000126300119392840988020000002760942776141409923_"  style="overflow:visible;fill:none;stroke:#FFFFFF;stroke-width:0.25;stroke-miterlimit:10;"/>
	</g>
</g>
</svg>
